<svg xmlns="http://www.w3.org/2000/svg" viewBox="0 0 80 91"><path fill="#70cf32" d="M30 91c-.7-14.4 3.7-31 3.7-31l9.4 1C44 72 50 86 55 91"/><path fill="#61b729" d="M35 48.3L32 68c3-2 10-2 12-1-2-7 0-19 0-19M63 4c-5 1-14 4-19 20"/><path fill="#70cf32" d="M14 9c9-2.8 17 10 29 8 2-.3 6.5-.6 9.2-3.1C55.8 10.6 59 4.2 63 4c6.6-.3 18.2 9.4 12 33-3.8 14.4-11.3 21.7-18 24-8.2 2.7-34.3 2.4-47-14-15.3-19.6-5.2-35.4 4-38z"/><path fill="#2d3033" d="M69 10c4.3-.7 8 4 9 11 .9 6.6-2 12-5 13-4.1 1.4-8.9-3.4-10-10s1.7-13.3 6-14zm-51 9c6.3-1.2 12.5 3.6 14 11s-1.7 14.8-8 16-12.5-3.6-14-11 1.7-14.8 8-16z"/><path fill="#61b729" d="M48.3 42.8c.2-1.4 1.1-2.5 2-2.3.9.1 1.4 1.4 1.2 2.8-.2 1.4-1.1 2.5-2 2.3-.9-.2-1.4-1.4-1.2-2.8zm7.4-3.1c.6-.4 1.7.2 2.5 1.4s1 2.5.4 2.9-1.7-.2-2.5-1.4-1-2.5-.4-2.9z"/><path fill="#6c7279" d="M68.6 19c1.3-.4 2.7.6 3.1 2.1s-.2 3.1-1.5 3.4c-1.3.4-2.7-.6-3.1-2.1-.4-1.5.2-3 1.5-3.4zm-49.1 8.7c1.6-.2 3.1 1 3.4 2.8s-.8 3.5-2.4 3.7c-1.6.2-3.1-1-3.4-2.8-.2-1.8.8-3.4 2.4-3.7z"/><path fill="#9bea68" d="M48 16s5.8 7 4 21c0 0-6.4-14.3-14-20 3.6-.8 6.3-1.1 10-1zm7 75s-3-4-6-9.4c-2.4-5.4-10.5-4-8.3 5.2 1 4.2 2 4.2 2 4.2"/></svg>
